<?xml version="1.0" encoding="utf-8"?>
<!-- Generator: Adobe Illustrator 19.0.0, SVG Export Plug-In . SVG Version: 6.00 Build 0)  -->
<svg version="1.1" id="Capa_1" xmlns="http://www.w3.org/2000/svg" xmlns:xlink="http://www.w3.org/1999/xlink" x="0px" y="0px"
	 viewBox="366 -55 550 610" style="enable-background:new 366 -55 550 610;" xml:space="preserve">
<style type="text/css">
	.st0{fill:#C6CAD5;}
	.st1{fill:#5A6F92;}
	.st2{fill:#476780;}
	.st3{fill:#35495E;}
	.st4{fill:#6C83B4;}
	.st5{fill:#EAF3F8;}
	.st6{fill:none;}
	.st7{fill:#EDF6F9;}
	.st8{fill:#FFFFFF;}
	.st9{font-family:'ArialMT';}
	.st10{font-size:56.1893px;}
	.st11{fill:none;stroke:#FFFFFF;stroke-miterlimit:10;}
	.st12{font-size:59.2189px;}
</style>
<g id="Capa_2_1_">
	<g id="Capa_2">
		<path id="XMLID_60_" class="st0" d="M504.3,442.3L624.1,522C569.7,515,524.6,484.1,504.3,442.3z"/>
		<path id="XMLID_61_" class="st0" d="M654.2,523.9l141.6-91.7C776.8,483.6,720.8,521.8,654.2,523.9z"/>
		<path id="XMLID_9_" class="st1" d="M804,392.6c0,13.6-2.7,27-7,39.4l-141.8,91.8c-2.1,0-4.3,1-6.6,0.3c-1-0.3-2.4-0.2-3.5-0.2
			c-0.8,0-1.4,0-2.1,0c-0.2,0-0.5,0.2-1,0.2c-0.6,0-1.9,0.3-2.9,0.3c-3.2-0.3-5.9-1-9.1-1.3c-0.8,0-2.1-0.2-2.9,0
			c-2.1,0.2-2.6-1-3.5-1l-119.5-79.8c-7-13.6-10.2-26.2-11.2-42.1L642,501.4l161.8-111C804,391.1,804,391.9,804,392.6z"/>
		<path id="XMLID_44_" class="st2" d="M813.9,404.1c0,78.6-73.3,142.6-163.8,142.6c-90.6,0-163.7-64-163.7-142.6
			c0-39.7,18.6-75.5,48.8-101.4c-26.2,23.4-42.2,55-42.2,89.9c0,2.7,0,5.3,0.2,8c1,15.7,5.4,30.7,12.5,44.3
			c20.8,40.5,65.3,70.2,118.6,77.3c1,0.3,1.9,0.3,2.9,0.3c0.6,0,1.6,0.3,2.7,0.3c3.2,0.3,6.6,0.6,9.8,0.8c0.8,0,1.6,0,2.4,0
			c0.2,0,0.5,0,1,0c0.8,0,1.3,0,2.1,0c1,0,2.4,0,3.4,0c2.1,0,4.5,0,6.6,0c66.6-2.4,122.4-40.2,141.8-91.5c4.6-12.3,7-25.6,7-39.4
			c0-0.8,0-1.3,0-2.1c-1.3-71-69.6-128.5-154.4-129c0.2,0,0.6,0,1,0C740.4,261.5,813.9,325.4,813.9,404.1z"/>
		<path id="XMLID_25_" class="st0" d="M375.8,68.6l13.1,260.8l253.3,172.5v-288L375.8,68.6z M600.6,426.2L417.1,304.8L408,134.2
			l192.6,105.3V426.2L600.6,426.2z"/>
		<polygon id="XMLID_14_" class="st3" points="600.6,239.9 600.6,426.2 417.1,305.2 408,134.6 		"/>
		<path id="XMLID_22_" class="st4" d="M642,213.7v287.7l251-172.3l13.1-260.8L642,213.7z M867.2,304.1L683.7,426.3V239.9
			l188.5-102.2L867.2,304.1z"/>
		<polygon id="XMLID_16_" class="st3" points="872.1,137.7 867.2,304.1 683.8,426.5 683.8,239.9 		"/>
		<path id="XMLID_28_" class="st5" d="M642-48.9L375.8,68.6L642,213.8L906.2,68.2L642-48.9z M469.2,65.8l173-75.8l171.7,75.8
			l-171.7,93.9L469.2,65.8z"/>
		<polygon id="XMLID_13_" class="st6" points="813.9,65.8 642.4,159.8 469.2,65.8 642.4,-9.5 		"/>
		<polygon id="XMLID_12_" class="st3" points="814.5,65.8 642.8,159.8 469.7,65.8 642.8,-9.5 		"/>
		<polygon id="XMLID_5_" class="st7" points="577.6,17.4 594.8,27.8 552.4,82.3 660.9,48.7 637.1,97.7 701.9,75 678.5,126.2 
			692.6,133.2 705.9,126.3 696.6,119.6 728.8,53.2 662.5,75 686.4,27.1 591.6,55.9 615.6,23 593.2,10.3 		"/>
		<polygon id="XMLID_2_" class="st6" points="582.7,357 448.1,270.3 443.3,211.6 578,298.2 		"/>
		<text transform="matrix(0.5367 0.3449 3.092410e-002 0.9995 446.6501 252.9988)" class="st8 st9 st10">GAMOS</text>
		<text id="XMLID_3_" transform="matrix(0.5367 0.3449 3.092410e-002 0.9995 446.6501 252.9988)" class="st11 st9 st10">GAMOS</text>
		<polygon id="XMLID_4_" class="st6" points="856.1,261.5 710.8,350.5 711.6,294.6 856.9,205.5 		"/>
		<text transform="matrix(0.5161 -0.3165 -1.403014e-002 0.9999 711.3301 336.8702)" class="st8 st9 st12">VirtualBox</text>
		<text id="XMLID_6_" transform="matrix(0.5161 -0.3165 -1.403014e-002 0.9999 711.3301 336.8702)" class="st11 st9 st12">VirtualBox</text>
	</g>
</g>
</svg>
